# xmcd
#
# Track frame offsets:
#	150
#	23061
#	40121
#	57265
#	79250
#	100840
#	116508
#	133998
#
# Disc length: 2023 seconds
#
# Revision: 0
# Processed by: cddbd v1.5.1PL0 Copyright (c) Steve Scherf et al.
# Submitted via: dBpowerAMP V4.0
#
DISCID=6407e508
DTITLE=Ashford and Simpson - Is It Still Good To Ya
DYEAR=1900
DGENRE=R&B
TTITLE0=It Seems To Hang On
TTITLE1=Is It Still Good To Ya
TTITLE2=The Debt Is Settled
TTITLE3=Ain't It A Shame
TTITLE4=Get Up And Do Something
TTITLE5=You Always Could
TTITLE6=Flashback
TTITLE7=As Long As It Holds You
EXTD=Eferem Hurdle
EXTT0=
EXTT1=
EXTT2=
EXTT3=
EXTT4=
EXTT5=
EXTT6=
EXTT7=
PLAYORDER=
